<?xml version="1.0" encoding="UTF-8"?>
<svg width="39px" height="39px" viewBox="0 0 39 39" version="1.1" xmlns="http://www.w3.org/2000/svg" xmlns:xlink="http://www.w3.org/1999/xlink">
    <!-- Generator: Sketch 49 (51002) - http://www.bohemiancoding.com/sketch -->
    <title>compass</title>
    <desc>Created with Sketch.</desc>
    <defs></defs>
    <g id="Assets" stroke="none" stroke-width="1" fill="none" fill-rule="evenodd">
        <g id="compass" fill="#FFA40B">
            <path d="M20,37.6557637 C29.6276694,37.3953772 37.3850337,29.6380129 37.6454202,20.0103435 L35.6086957,20.0103435 C35.3325533,20.0103435 35.1086957,19.7864859 35.1086957,19.5103435 C35.1086957,19.2342011 35.3325533,19.0103435 35.6086957,19.0103435 L37.6454202,19.0103435 C37.3805409,9.21655462 29.3577404,1.35816957 19.5,1.35816957 C9.64225963,1.35816957 1.61945914,9.21655462 1.35457975,19.0103435 L3.39130435,19.0103435 C3.66744672,19.0103435 3.89130435,19.2342011 3.89130435,19.5103435 C3.89130435,19.7864859 3.66744672,20.0103435 3.39130435,20.0103435 L1.35457975,20.0103435 C1.61496633,29.6380129 9.37233062,37.3953772 19,37.6557637 L19,35.6190391 C19,35.3428968 19.2238576,35.1190391 19.5,35.1190391 C19.7761424,35.1190391 20,35.3428968 20,35.6190391 L20,37.6557637 Z M38.6521739,19.5103435 C38.6521739,30.0875728 30.0772293,38.6625174 19.5,38.6625174 C8.92277067,38.6625174 0.347826087,30.0875728 0.347826087,19.5103435 C0.347826087,8.93311415 8.92277067,0.358169565 19.5,0.358169565 C30.0772293,0.358169565 38.6521739,8.93311415 38.6521739,19.5103435 Z M15.0984832,6.15979947 C15.36079,6.07348732 15.6434014,6.21615912 15.7297136,6.47846585 C15.8160257,6.74077259 15.6733539,7.02338404 15.4110472,7.10969619 C10.0966579,8.85839841 6.43546087,13.8299482 6.43546087,19.5098348 C6.43546087,26.725679 12.284329,32.5750522 19.5006783,32.5750522 C26.7159272,32.5750522 32.5658957,26.7250837 32.5658957,19.5098348 C32.5658957,13.8296283 28.9043999,8.85831008 23.5886579,7.10971072 C23.3263431,7.02342297 23.183645,6.7408248 23.2699328,6.47851003 C23.3562205,6.21619527 23.6388187,6.07349718 23.9011334,6.15978493 C29.6239855,8.04230206 33.5658957,13.3943469 33.5658957,19.5098348 C33.5658957,27.2773685 27.2682119,33.5750522 19.5006783,33.5750522 C11.7320249,33.5750522 5.43546087,27.2779445 5.43546087,19.5098348 C5.43546087,13.3947073 9.3770233,8.04244846 15.0984832,6.15979947 Z M18.3043478,7.64077826 C18.3043478,7.91692064 18.0804902,8.14077826 17.8043478,8.14077826 C17.5282055,8.14077826 17.3043478,7.91692064 17.3043478,7.64077826 L17.3043478,4.24947391 C17.3043478,3.80402149 17.8429188,3.58093809 18.1579012,3.89592052 L20.6956522,6.43367148 L20.6956522,4.24947391 C20.6956522,3.97333154 20.9195098,3.74947391 21.1956522,3.74947391 C21.4717945,3.74947391 21.6956522,3.97333154 21.6956522,4.24947391 L21.6956522,7.64077826 C21.6956522,8.08623069 21.1570812,8.30931408 20.8420988,7.99433165 L18.3043478,5.45658069 L18.3043478,7.64077826 Z" id="Combined-Shape"></path>
            <path d="M26.0757072,12.2725515 C26.4962968,12.0813745 26.928969,12.5140467 26.7377919,12.9346363 L22.4986615,22.2607232 C22.3542016,22.578535 21.936778,22.6542283 21.6899249,22.4073751 L16.6029683,17.3204186 C16.3561152,17.0735654 16.4318085,16.6561419 16.7496203,16.511682 L26.0757072,12.2725515 Z M17.8202528,17.1234895 L21.8868539,21.1900906 L25.2756882,13.7346553 L17.8202528,17.1234895 Z" id="Stroke-442"></path>
            <path d="M12.2622081,26.0860507 L16.5013385,16.7599637 C16.6457984,16.442152 17.063222,16.3664587 17.3100751,16.6133118 L22.3970317,21.7002683 C22.6438848,21.9471215 22.5681915,22.3645451 22.2503797,22.509005 L12.9242928,26.7481354 C12.5037032,26.9393125 12.071031,26.5066403 12.2622081,26.0860507 Z M21.1797472,21.8971974 L17.1131461,17.8305963 L13.7243118,25.2860317 L21.1797472,21.8971974 Z" id="Stroke-444"></path>
        </g>
    </g>
</svg>