<?xml version="1.0" encoding="UTF-8"?>
<svg width="18px" height="18px" viewBox="0 0 18 18" version="1.1" xmlns="http://www.w3.org/2000/svg" xmlns:xlink="http://www.w3.org/1999/xlink">
    <!-- Generator: Sketch 49 (51002) - http://www.bohemiancoding.com/sketch -->
    <title>git</title>
    <desc>Created with Sketch.</desc>
    <defs></defs>
    <g id="Assets" stroke="none" stroke-width="1" fill="none" fill-rule="evenodd">
        <path d="M9.10935966,0.692596394 C13.7793544,0.692596394 17.5653408,4.47351072 17.5653408,9.13787375 C17.5653408,12.8680216 15.1454854,16.0326056 11.7874301,17.1505871 C11.3587988,17.2335197 11.2065864,16.9701773 11.2065864,16.7454342 C11.2065864,16.4671276 11.2163885,15.5576663 11.2163885,14.4277973 C11.2163885,13.6398679 10.9461309,13.1259097 10.6428263,12.863826 C12.5258074,12.6547464 14.5040087,11.9405193 14.5040087,8.69677874 C14.5040087,7.77473072 14.1759188,7.0213449 13.6337234,6.42990837 C13.7215221,6.21705275 14.0111037,5.3582181 13.5508257,4.19492439 C13.5508257,4.19492439 12.8417147,3.96794367 11.2277309,5.06061182 C10.5519469,4.87348908 9.82799273,4.779648 9.10935966,4.77643139 C8.39072659,4.779648 7.66733251,4.87348908 6.99280884,5.06061182 C5.37686464,3.96794367 4.66677339,4.19492439 4.66677339,4.19492439 C4.20761559,5.3582181 4.49705724,6.21705275 4.58485594,6.42990837 C4.04392072,7.0213449 3.71359036,7.77473072 3.71359036,8.69677874 C3.71359036,11.9328274 5.68801091,12.6569841 7.56623097,12.8705389 C7.32439946,13.0812968 7.10525279,13.4541437 7.02935662,13.9998485 C6.54681384,14.215641 5.32281312,14.5889075 4.56861248,13.2977886 C4.56861248,13.2977886 4.12149724,12.4869233 3.27235638,12.427486 C3.27235638,12.427486 2.44730064,12.4167173 3.21452406,12.9408848 C3.21452406,12.9408848 3.76876211,13.2004512 4.15342404,14.1766221 C4.15342404,14.1766221 4.64982978,15.6839532 7.00233086,15.1730717 C7.00597164,15.8787678 7.01381331,16.5440465 7.01381331,16.7454342 C7.01381331,16.9684991 6.85866026,17.2298835 6.43605025,17.1517059 C3.07617459,16.0349831 0.653238501,12.8692803 0.653238501,9.13787375 C0.653238501,4.47351072 4.43978504,0.692596394 9.10935966,0.692596394 Z M3.921594,12.9079191 C3.89757581,12.9763826 3.81233833,12.9966259 3.73468554,12.9497705 C3.65558806,12.9049622 3.61116344,12.8119337 3.63680692,12.7434702 C3.66028334,12.6731871 3.74570141,12.6538536 3.82461831,12.7004815 C3.90389638,12.7455173 3.94904335,12.8394556 3.921594,12.9079191 Z M4.24518441,13.2424388 C4.19638994,13.2865861 4.10100353,13.2660832 4.03628308,13.1963073 C3.96936011,13.1266968 3.95682264,13.0336071 4.00629481,12.9887985 C4.05661411,12.9446511 4.14912029,12.9653194 4.21621269,13.0349299 C4.28313566,13.1053672 4.29618141,13.1977955 4.24518441,13.2424388 Z M4.55970778,13.6861591 C4.50157272,13.7221013 4.40651404,13.6883968 4.34775049,13.613296 C4.28961543,13.5381951 4.28961543,13.4481301 4.34900747,13.4120481 C4.40792814,13.3759661 4.50157272,13.4084119 4.56112187,13.4829534 C4.61909981,13.559173 4.61909981,13.6493779 4.55970778,13.6861591 Z M4.98870196,14.1560638 C4.94235209,14.20711 4.84363106,14.1934044 4.77137567,14.1237579 C4.69743992,14.0556496 4.67685554,13.9590115 4.72334544,13.9079653 C4.77025543,13.8567793 4.86953658,13.8711841 4.94235209,13.9402713 C5.01572772,14.0082396 5.03813249,14.105577 4.98870196,14.1560638 Z M5.61883618,14.4548827 C5.59839182,14.530345 5.50331157,14.564646 5.40753117,14.5325786 C5.3118908,14.4995538 5.24929747,14.4111688 5.26862158,14.3349088 C5.28850582,14.2589679 5.38400616,14.223231 5.48048671,14.2575321 C5.57598705,14.2903972 5.63872041,14.3781441 5.61883618,14.4548827 Z M6.31086358,14.5031654 C6.31324409,14.5861596 6.23202679,14.6549882 6.13148537,14.6563214 C6.03038384,14.6591546 5.94860642,14.5919926 5.94748618,14.5103316 C5.94748618,14.426504 6.02688309,14.3583421 6.12798463,14.3563422 C6.22852604,14.3540091 6.31086358,14.4206711 6.31086358,14.5031654 Z M6.95486075,14.3862532 C6.96690332,14.4656347 6.89702843,14.5471396 6.79718717,14.5687 C6.69902626,14.5897704 6.6081469,14.5407695 6.59568425,14.4620413 C6.58350165,14.3806998 6.6546368,14.2991949 6.75265768,14.2781245 C6.85263898,14.2578708 6.94211804,14.305565 6.95486075,14.3862532 Z" id="git" fill="#000000"></path>
    </g>
</svg>