<?xml version="1.0" encoding="UTF-8"?>
<svg width="19px" height="12px" viewBox="0 0 19 12" version="1.1" xmlns="http://www.w3.org/2000/svg" xmlns:xlink="http://www.w3.org/1999/xlink">
    <!-- Generator: Sketch 49 (51002) - http://www.bohemiancoding.com/sketch -->
    <title>google</title>
    <desc>Created with Sketch.</desc>
    <defs></defs>
    <g id="Assets" stroke="none" stroke-width="1" fill="none" fill-rule="evenodd">
        <path d="M0.0151805745,5.43323551 C0.064375019,2.48688746 2.77026391,-0.093527155 5.71356946,0.00476879291 C7.12368057,-0.0606320754 8.4494028,0.553668938 9.52954169,1.41653218 C9.06870835,1.94071235 8.59134724,2.44601192 8.08112502,2.91841641 C6.78281946,2.01993305 4.93598613,1.76339036 3.63768057,2.8010452 C1.77995835,4.08706764 1.69556946,7.12353652 3.48212502,8.5078549 C5.21968057,10.0862348 8.50404169,9.30239759 8.98412502,6.88587444 C7.89562502,6.86952422 6.80459724,6.88587444 5.71629169,6.85044897 C5.71356946,6.20052784 5.71084724,5.55060671 5.71356946,4.90068558 C7.53298613,4.89523551 9.3524028,4.89251047 11.1745417,4.90613565 C11.283625,6.43527024 11.0817917,8.06270078 10.1434028,9.32711756 C8.72220835,11.3286566 5.86893057,11.9129823 3.64312502,11.0555691 C1.4091528,10.203606 -0.173041648,7.84158355 0.0151805745,5.43323551 Z M15.6448056,3 L17.2678333,3 C17.2705556,3.54345007 17.2732778,4.08943054 17.2787222,4.63288061 C17.8216111,4.63833068 18.3670278,4.63833068 18.9099167,4.64378075 L18.9099167,6.26848625 C18.3670278,6.27393632 17.8243333,6.27666136 17.2787222,6.28211143 C17.2732778,6.82828654 17.2705556,7.37173661 17.2678333,7.91499204 L15.6420833,7.91499204 C15.6366389,7.37173661 15.6366389,6.82828654 15.6311944,6.28483647 C15.0883056,6.2793864 14.5426944,6.27393632 14,6.26848625 L14,4.64378075 C14.5426944,4.63833068 15.0855833,4.63560564 15.6311944,4.63288061 C15.6339167,4.0867055 15.6393611,3.54345007 15.6448056,3 Z" id="google" fill="#000000"></path>
    </g>
</svg>