<?xml version="1.0" encoding="UTF-8"?>
<svg width="18px" height="18px" viewBox="0 0 18 18" version="1.1" xmlns="http://www.w3.org/2000/svg" xmlns:xlink="http://www.w3.org/1999/xlink">
    <!-- Generator: Sketch 49 (51002) - http://www.bohemiancoding.com/sketch -->
    <title>instagram</title>
    <desc>Created with Sketch.</desc>
    <defs></defs>
    <g id="Assets" stroke="none" stroke-width="1" fill="none" fill-rule="evenodd">
        <path d="M9.1316994,2.1906824 C11.3535908,2.1906824 11.617111,2.19899355 12.4950493,2.23916414 C14.7502274,2.34166841 15.8036148,3.41034465 15.906249,5.64604581 C15.9464705,6.52218025 15.9540987,6.78536688 15.9540987,9.00444572 C15.9540987,11.2242172 15.945777,11.4867112 15.906249,12.3628456 C15.8029213,14.596469 14.7523079,15.667223 12.4950493,15.7697273 C11.617111,15.8098979 11.3549777,15.8182091 9.1316994,15.8182091 C6.90980803,15.8182091 6.64628783,15.8098979 5.76904295,15.7697273 C3.50831703,15.6665304 2.4604775,14.593006 2.35784331,12.362153 C2.31762181,11.4860186 2.30930012,11.2235246 2.30930012,9.00375313 C2.30930012,6.78467428 2.31831528,6.52218025 2.35784331,5.64535321 C2.46117097,3.41034465 3.5117844,2.34097581 5.76904295,2.23847155 C6.6469813,2.19899355 6.90980803,2.1906824 9.1316994,2.1906824 L9.1316994,2.1906824 Z M9.1316994,0.692596394 C6.87166695,0.692596394 6.58872947,0.702292744 5.70108248,0.742463335 C2.67892187,0.880982614 0.999327336,2.5556807 0.860632494,5.57678617 C0.819717516,6.46400215 0.810008877,6.74658148 0.810008877,9.00375313 C0.810008877,11.2609248 0.819717516,11.5441967 0.85993902,12.4307201 C0.998633862,15.4490552 2.6754545,17.1265236 5.70038901,17.2650429 C6.58872947,17.3052135 6.87166695,17.3149099 9.1316994,17.3149099 C11.3917318,17.3149099 11.6753628,17.3052135 12.5630098,17.2650429 C15.5823965,17.1265236 17.2661519,15.4518256 17.4027663,12.4307201 C17.4436813,11.5441967 17.4533899,11.2609248 17.4533899,9.00375313 C17.4533899,6.74658148 17.4436813,6.46400215 17.4034598,5.57747876 C17.2675388,2.56191406 15.5886378,0.88167521 12.5637033,0.743155931 C11.6753628,0.702292744 11.3917318,0.692596394 9.1316994,0.692596394 L9.1316994,0.692596394 Z M9.1316994,4.73597415 C6.77180666,4.73597415 4.85851131,6.6468476 4.85851131,9.00375313 C4.85851131,11.3606587 6.77180666,13.2722247 9.1316994,13.2722247 C11.4915921,13.2722247 13.4048875,11.3613513 13.4048875,9.00375313 C13.4048875,6.6468476 11.4915921,4.73597415 9.1316994,4.73597415 L9.1316994,4.73597415 Z M9.1316994,11.7741387 C7.59981487,11.7741387 6.35780256,10.5343912 6.35780256,9.00375313 C6.35780256,7.47380769 7.59981487,6.23336755 9.1316994,6.23336755 C10.6635839,6.23336755 11.9055962,7.47380769 11.9055962,9.00375313 C11.9055962,10.5343912 10.6635839,11.7741387 9.1316994,11.7741387 L9.1316994,11.7741387 Z M13.5740952,3.57033441 C13.0220897,3.57033441 12.5747988,4.01705909 12.5747988,4.56767322 C12.5747988,5.11828735 13.0220897,5.56501203 13.5740952,5.56501203 C14.1254072,5.56501203 14.5720046,5.11828735 14.5720046,4.56767322 C14.5720046,4.01705909 14.1254072,3.57033441 13.5740952,3.57033441 L13.5740952,3.57033441 Z" id="instagram" fill="#000000"></path>
    </g>
</svg>