<?xml version="1.0" encoding="UTF-8"?>
<svg width="38px" height="39px" viewBox="0 0 38 39" version="1.1" xmlns="http://www.w3.org/2000/svg" xmlns:xlink="http://www.w3.org/1999/xlink">
    <!-- Generator: Sketch 49 (51002) - http://www.bohemiancoding.com/sketch -->
    <title>mountains</title>
    <desc>Created with Sketch.</desc>
    <defs></defs>
    <g id="Assets" stroke="none" stroke-width="1" fill="none" fill-rule="evenodd">
        <path d="M11.1183787,17.1576438 L1.58176656,37.2904917 L28.5015668,37.2904917 L18.9649546,17.1576438 L15.3952201,20.7273784 C15.1999579,20.9226405 14.8833754,20.9226405 14.6881133,20.7273784 L11.1183787,17.1576438 Z M11.5729473,16.1979989 L15.0416667,19.6667182 L18.510386,16.1979989 L15.0416667,8.875147 L11.5729473,16.1979989 Z M26.1486501,10.0883012 L23.3764143,14.3145747 C23.1850373,14.6063288 22.7612318,14.6173053 22.5550089,14.3358488 L19.5248043,10.2001757 L19.4552978,10.3542578 C19.3417484,10.6059742 19.0456419,10.7179806 18.7939256,10.6044312 C18.5422092,10.4908817 18.4302027,10.1947753 18.5437522,9.9430589 L18.9560868,9.02899559 C18.9619865,9.01402198 18.9686211,8.99930135 18.9759817,8.9848925 L22.5020855,1.16822556 C22.680997,0.771614549 23.2460376,0.77694787 23.4174308,1.17686535 L37.6674308,34.4268654 C37.8088312,34.7567996 37.5668161,35.123825 37.2078583,35.123825 L30.7431083,35.123825 C30.466966,35.123825 30.2431083,34.8999674 30.2431083,34.623825 C30.2431083,34.3476826 30.466966,34.123825 30.7431083,34.123825 L36.4495888,34.123825 L26.1486501,10.0883012 Z M19.9972052,9.15295754 L22.9356198,13.1633543 L25.6760502,8.98556821 L22.9461358,2.61576805 L19.9972052,9.15295754 Z M14.5897977,7.49311516 C14.7704021,7.11183939 15.3129313,7.11183939 15.4935356,7.49311516 L29.7435356,37.5764485 C29.9006677,37.9081718 29.6587237,38.2904917 29.2916667,38.2904917 L0.791666667,38.2904917 C0.424609651,38.2904917 0.182665651,37.9081718 0.339797747,37.5764485 L14.5897977,7.49311516 Z" id="mountains" fill="#FFA40B" fill-rule="nonzero"></path>
    </g>
</svg>