<?xml version="1.0" encoding="UTF-8"?>
<svg width="18px" height="18px" viewBox="0 0 18 18" version="1.1" xmlns="http://www.w3.org/2000/svg" xmlns:xlink="http://www.w3.org/1999/xlink">
    <!-- Generator: Sketch 49 (51002) - http://www.bohemiancoding.com/sketch -->
    <title>pinterest</title>
    <desc>Created with Sketch.</desc>
    <defs></defs>
    <g id="Assets" stroke="none" stroke-width="1" fill="none" fill-rule="evenodd">
        <path d="M8.75,0 C3.91786111,0 0,3.921911 0,8.75904486 C0,12.3644624 2.17680556,15.4608821 5.28558333,16.8054928 C5.26322222,16.19489 5.285,15.4667214 5.43938889,14.8064841 C5.60913889,14.0938871 6.57047222,10.0164544 6.57047222,10.0164544 C6.57047222,10.0164544 6.28969444,9.45451302 6.28969444,8.62493415 C6.28969444,7.32353473 7.04472222,6.34952894 7.98311111,6.34952894 C8.78208333,6.34952894 9.16825,6.95137265 9.16825,7.67058755 C9.16825,8.47408394 8.65608333,9.67582489 8.39163889,10.7890022 C8.17269444,11.7213538 8.86063889,12.4826122 9.77919444,12.4826122 C11.4416944,12.4826122 12.5615,10.3436534 12.5615,7.80800724 C12.5615,5.88237988 11.2670833,4.43947323 8.90866667,4.43947323 C6.24575,4.43947323 4.58441667,6.4281657 4.58441667,8.65004342 C4.58441667,9.41558394 4.81075,9.95650362 5.16483333,10.3740181 C5.32719444,10.5661331 5.34916667,10.643602 5.28986111,10.8649139 C5.24708333,11.025691 5.15258333,11.4149819 5.11194444,11.5705036 C5.05380556,11.7929834 4.87277778,11.8710362 4.67191667,11.7892851 C3.44575,11.2888517 2.87330556,9.94365702 2.87330556,8.43184588 C2.87330556,5.93415557 4.97738889,2.9397301 9.14958333,2.9397301 C12.5033611,2.9397301 14.7095278,5.36909986 14.7095278,7.97481838 C14.7095278,11.4251035 12.7938611,14.0002627 9.97130556,14.0002627 C9.023,14.0002627 8.1305,13.4869826 7.82658333,12.9053821 C7.82658333,12.9053821 7.315,14.9289161 7.20825,15.3213213 C7.02391667,15.9891498 6.66886111,16.6563944 6.33986111,17.1817424 C7.10461111,17.4005239 7.91311111,17.5180897 8.75,17.5180897 C13.5821389,17.5180897 17.5,13.5961787 17.5,8.75904486 C17.5,3.921911 13.5821389,0 8.75,0" id="pinterest" fill="#000000"></path>
    </g>
</svg>