<?xml version="1.0" encoding="UTF-8"?>
<svg width="15px" height="16px" viewBox="0 0 15 16" version="1.1" xmlns="http://www.w3.org/2000/svg" xmlns:xlink="http://www.w3.org/1999/xlink">
    <!-- Generator: Sketch 49 (51002) - http://www.bohemiancoding.com/sketch -->
    <title>share</title>
    <desc>Created with Sketch.</desc>
    <defs></defs>
    <g id="Assets" stroke="none" stroke-width="1" fill="none" fill-rule="evenodd">
        <path d="M12.2357143,5.375 C13.7571429,5.375 15,4.16666667 15,2.6875 C15,1.20833333 13.7571429,0 12.2357143,0 C10.7142857,0 9.47142857,1.20833333 9.47142857,2.6875 C9.47142857,2.97916667 9.51428571,3.25 9.6,3.5 L4.82142857,6.1875 C4.30714286,5.64583333 3.57857143,5.3125 2.78571429,5.3125 C1.24285714,5.3125 0,6.52083333 0,8 C0,9.47916667 1.24285714,10.6875 2.76428571,10.6875 C3.57857143,10.6875 4.30714286,10.3541667 4.8,9.8125 L9.57857143,12.5 C9.49285714,12.75 9.45,13.0416667 9.45,13.3125 C9.45,14.7916667 10.6928571,16 12.2142857,16 C13.7357143,16 14.9785714,14.7916667 14.9785714,13.3125 C14.9785714,11.8333333 13.7357143,10.625 12.2142857,10.625 C11.4,10.625 10.6714286,10.9583333 10.1785714,11.5 L5.4,8.8125 C5.48571429,8.5625 5.52857143,8.27083333 5.52857143,8 C5.52857143,7.70833333 5.48571429,7.4375 5.4,7.1875 L10.1785714,4.5 C10.6928571,5.04166667 11.4214286,5.375 12.2357143,5.375 Z" id="share" fill="#000000" fill-rule="nonzero"></path>
    </g>
</svg>