<?xml version="1.0" encoding="UTF-8"?>
<svg width="15px" height="18px" viewBox="0 0 15 18" version="1.1" xmlns="http://www.w3.org/2000/svg" xmlns:xlink="http://www.w3.org/1999/xlink">
    <!-- Generator: Sketch 49 (51002) - http://www.bohemiancoding.com/sketch -->
    <title>stackoverflow</title>
    <desc>Created with Sketch.</desc>
    <defs></defs>
    <g id="Assets" stroke="none" stroke-width="1" fill="none" fill-rule="evenodd">
        <path d="M12.6633488,16.1096879 L12.6633488,11.3727455 L14.2375163,11.3727455 L14.2375163,17.6818628 L0.0291214698,17.6818628 L0.0291214698,11.3727455 L1.60328895,11.3727455 L1.60328895,16.1096879 L12.6633488,16.1096879 Z M3.3410063,10.9235526 L3.66810604,9.37179563 L11.3958373,10.9848062 L11.0687376,12.5365632 L3.3410063,10.9235526 Z M4.36319298,7.24833867 L5.01739246,5.79867093 L12.1726992,9.14719922 L11.5184997,10.5764491 L4.36319298,7.24833867 Z M6.34623514,3.73646754 L7.34797808,2.53181407 L13.4197669,7.57502435 L12.418024,8.77967782 L6.34623514,3.73646754 Z M10.271432,0 L14.9734907,6.32953518 L13.7059792,7.26875652 L9.0039205,0.939221349 L10.271432,0 Z M3.17745644,14.5170952 L3.17745644,12.9449203 L11.0687376,12.9449203 L11.0687376,14.5170952 L3.17745644,14.5170952 Z" id="stackoverflow" fill="#000000" fill-rule="nonzero"></path>
    </g>
</svg>