<?xml version="1.0" encoding="UTF-8"?>
<svg width="17px" height="14px" viewBox="0 0 17 14" version="1.1" xmlns="http://www.w3.org/2000/svg" xmlns:xlink="http://www.w3.org/1999/xlink">
    <!-- Generator: Sketch 49 (51002) - http://www.bohemiancoding.com/sketch -->
    <title>twitter</title>
    <desc>Created with Sketch.</desc>
    <defs></defs>
    <g id="Assets" stroke="none" stroke-width="1" fill="none" fill-rule="evenodd">
        <path d="M16.643381,1.67699426 C16.0310433,1.94849204 15.3729363,2.13133749 14.682236,2.21375646 C15.3874992,1.79196526 15.9291026,1.12360974 16.1836076,0.327123885 C15.5241137,0.717748252 14.7931918,1.00171277 14.0151138,1.15477658 C13.3930674,0.491961827 12.504727,0.0777891833 11.5227675,0.0777891833 C9.31821296,0.0777891833 7.6982572,2.13203009 8.19617169,4.26453439 C5.35916869,4.12255213 2.84324426,2.76506319 1.1587954,0.701818535 C0.264213674,2.23453436 0.694861158,4.23960092 2.21495663,5.25494723 C1.65601641,5.23693973 1.12897601,5.08387592 0.669202613,4.82830785 C0.631755005,6.40812023 1.76558534,7.88612093 3.40773227,8.21510422 C2.92715464,8.34531234 2.40080771,8.37578658 1.86544562,8.27328232 C2.29956048,9.62800087 3.56029659,10.6135655 5.05542699,10.6412694 C3.61993538,11.7653533 1.81135464,12.2674857 0,12.054166 C1.5110803,13.0217232 3.30648503,13.5861893 5.23434334,13.5861893 C11.5740846,13.5861893 15.1558789,8.2386525 14.9395149,3.44242247 C15.6066371,2.96106797 16.1856881,2.3605869 16.643381,1.67699426 L16.643381,1.67699426 Z" id="twitter" fill="#000000"></path>
    </g>
</svg>