<?xml version="1.0" encoding="UTF-8"?>
<svg width="15px" height="18px" viewBox="0 0 15 18" version="1.1" xmlns="http://www.w3.org/2000/svg" xmlns:xlink="http://www.w3.org/1999/xlink">
    <!-- Generator: Sketch 49 (51002) - http://www.bohemiancoding.com/sketch -->
    <title>youtube</title>
    <desc>Created with Sketch.</desc>
    <defs></defs>
    <g id="Assets" stroke="none" stroke-width="1" fill="none" fill-rule="evenodd">
        <path d="M2.70037925,0.692596394 L3.69898211,0.692596394 L4.38413463,3.25658825 L5.01935701,0.692596394 L6.02766851,0.692596394 L4.87303395,4.50533955 L4.87303395,7.1074242 L3.88067235,7.1074242 L3.88067235,4.50533955 L2.70037925,0.692596394 L2.70037925,0.692596394 Z M7.27314819,2.33612764 C6.49715055,2.33612764 5.98259268,2.84864897 5.98259268,3.60704202 L5.98259268,5.92654735 C5.98259268,6.76043341 6.41878796,7.19469135 7.27314819,7.19469135 C7.98187883,7.19469135 8.53943209,6.72164801 8.53943209,5.92654735 L8.53943209,3.60704202 C8.53943209,2.86665648 7.98673315,2.33612764 7.27314819,2.33612764 L7.27314819,2.33612764 Z M7.64138299,5.88706935 C7.64138299,6.14471521 7.50962289,6.33448662 7.27245471,6.33448662 C7.02904527,6.33448662 6.88827,6.13571146 6.88827,5.88706935 L6.88827,3.68530541 C6.88827,3.42627436 7.00754757,3.23442516 7.25511786,3.23442516 C7.5255728,3.23442516 7.64138299,3.42073359 7.64138299,3.68530541 L7.64138299,5.88706935 L7.64138299,5.88706935 Z M10.9208225,2.37560563 L10.9208225,5.96741053 C10.813334,6.10177423 10.5740854,6.32201989 10.4027973,6.32201989 C10.2148658,6.32201989 10.168403,6.19319696 10.168403,6.00342555 L10.168403,2.37560563 L9.28769077,2.37560563 L9.28769077,6.33033105 C9.28769077,6.79783361 9.43054645,7.17529865 9.90280239,7.17529865 C10.1690965,7.17529865 10.5394117,7.03677937 10.9208225,6.58451392 L10.9208225,7.1067316 L11.8015348,7.1067316 L11.8015348,2.37560563 L10.9208225,2.37560563 L10.9208225,2.37560563 Z M12.4485462,11.9736065 C12.1378698,11.9736065 12.0733767,12.1917743 12.0733767,12.5020575 L12.0733767,12.9584785 L12.8147006,12.9584785 L12.8147006,12.5013649 C12.8153941,12.1966225 12.750901,11.9736065 12.4485462,11.9736065 L12.4485462,11.9736065 Z M9.18713701,12.0013103 C9.12888517,12.031092 9.07132681,12.0768033 9.01376845,12.1384444 L9.01376845,14.9469228 C9.0824224,15.020338 9.14830245,15.0729753 9.21279555,15.1055274 C9.34940997,15.174787 9.54913054,15.1796352 9.64205609,15.0591234 C9.69059928,14.9954045 9.71487088,14.8922077 9.71487088,14.7481476 L9.71487088,12.4217163 C9.71487088,12.2693451 9.68505149,12.1543741 9.62541271,12.0754181 C9.523472,11.941747 9.33415354,11.9272025 9.18713701,12.0013103 L9.18713701,12.0013103 Z M12.534537,8.40327205 C10.7287302,8.28068249 4.86055141,8.28068249 3.05751847,8.40327205 C1.10608204,8.53625056 0.875848601,9.71366443 0.861285643,12.8130333 C0.875848601,15.9068614 1.10400162,17.089816 3.05751847,17.2227945 C4.86055141,17.3453841 10.7287302,17.3453841 12.534537,17.2227945 C14.4859734,17.089816 14.7162069,15.9117096 14.7307698,12.8130333 C14.7162069,9.7192052 14.4880539,8.53625056 12.534537,8.40327205 L12.534537,8.40327205 Z M3.98816086,15.8043571 L3.04295551,15.8043571 L3.04295551,10.5821803 L2.06515687,10.5821803 L2.06515687,9.69565693 L4.96526602,9.69565693 L4.96526602,10.5821803 L3.98746738,10.5821803 L3.98746738,15.8043571 L3.98816086,15.8043571 Z M7.34873688,15.8043571 L6.50963308,15.8043571 L6.50963308,15.3070729 C6.35498833,15.490611 6.19410232,15.6305154 6.02697503,15.7260937 C5.57482985,15.9851248 4.95417043,15.9788914 4.95417043,15.0646642 L4.95417043,11.298325 L5.79258075,11.298325 L5.79258075,14.7529958 C5.79258075,14.9344561 5.83626962,15.056353 6.01587944,15.056353 C6.17953936,15.056353 6.4069989,14.8464963 6.50893961,14.7190586 L6.50893961,11.298325 L7.3480434,11.298325 L7.3480434,15.8043571 L7.34873688,15.8043571 Z M10.5782463,14.8707372 C10.5782463,15.4282773 10.3695105,15.8618426 9.8112638,15.8618426 C9.50405472,15.8618426 9.24816274,15.749642 9.01446193,15.4580589 L9.01446193,15.8043571 L8.16772992,15.8043571 L8.16772992,9.69565693 L9.01446193,9.69565693 L9.01446193,11.6626307 C9.20378039,11.4319961 9.46105932,11.2415321 9.76064018,11.2415321 C10.3750583,11.2415321 10.5789397,11.7602868 10.5789397,12.3711568 L10.5789397,14.8707372 L10.5782463,14.8707372 Z M13.6787695,13.6573083 L12.0740701,13.6573083 L12.0740701,14.5078167 C12.0740701,14.8458037 12.1031961,15.1380794 12.4402245,15.1380794 C12.7945898,15.1380794 12.8153941,14.8998262 12.8153941,14.5078167 L12.8153941,14.1947631 L13.6787695,14.1947631 L13.6787695,14.5334427 C13.6787695,15.401266 13.3056803,15.9276393 12.4215007,15.9276393 C11.620538,15.9276393 11.2106948,15.3444731 11.2106948,14.5334427 L11.2106948,12.5103687 C11.2106948,11.7284273 11.7280265,11.1847392 12.4846069,11.1847392 C13.2897304,11.1847392 13.678076,11.6958753 13.678076,12.5103687 L13.678076,13.6573083 L13.6787695,13.6573083 Z" id="youtube" fill="#000000"></path>
    </g>
</svg>