<svg version="1" xmlns="http://www.w3.org/2000/svg" width="516" height="516" viewBox="0 0 387.000000 387.000000"><path d="M179 8.7c-52.3 2.4-89.4 23.5-106.5 60.7-6.3 13.5-8 22.1-8 40.1 0 14 .3 16.9 2.3 23.5 3.8 12.1 8.9 20.7 17.2 29.1 16.2 16.5 36.2 26 84 39.8 31.2 9.1 38.2 11.4 50.6 16.7 13.6 5.8 21.3 10.4 28.9 17.5 12.4 11.6 16.8 22 16.8 39.4 0 25.9-10.6 44.8-30.8 55.2-16.4 8.4-28.1 10.3-64.8 10.3h-26.8l.6-3.3c2.3-13.8 10.6-87.3 10.3-91.7-.5-6.7-2.7-10.2-8.4-13-10-5-23.2.5-27.4 11.4-.5 1.5-3.3 21.3-6 43.9-2.8 22.7-5.4 43.7-5.8 46.7l-.7 5.5-28.5.5c-24 .4-29 .8-31.5 2.2-12.4 6.8-14.3 24.1-3.3 30.8 3.2 1.9 5.2 2 77.6 2 87.1 0 95.7-.6 119.2-8.2 34.5-11.2 55.1-33 63.7-67.4 2.5-9.9 2.7-12.6 2.8-29.9 0-17.3-.2-19.6-2.3-25.9-6-17.8-16.4-30.6-34.4-42.3-15.2-9.8-34.6-17.7-75-30.3-14.5-4.6-29.9-9.6-34.2-11.2-46.4-17-60.7-35.2-54.1-68.6 3.6-17.7 13.9-31.4 29.6-39.1 16.1-7.9 31.4-10.1 71.2-10.1 19.7 0 23.7.2 23.7 1.4 0 .8-2.5 21.5-5.5 46.1-5.8 46.9-5.9 48.7-1.9 54.4 2 2.8 8.8 6 12.8 6.1 8.2 0 17.3-6 20-13.3.9-2.3 3.8-22.9 6.6-45.7 2.7-22.8 5.3-43.2 5.6-45.3l.6-3.7h28.4c26.6 0 28.7-.1 32.5-2 5-2.6 9.6-9 10.5-14.6.8-5.8-2.6-13-7.6-15.9-3.4-2-5.2-2-74.5-2.1-39 0-73.9.1-77.5.3z"/></svg>